<?xml version="1.0" encoding="utf-8"?>
<!-- Generator: Adobe Illustrator 22.0.0, SVG Export Plug-In . SVG Version: 6.00 Build 0)  -->
<svg version="1.1" id="Layer_1" xmlns="http://www.w3.org/2000/svg" xmlns:xlink="http://www.w3.org/1999/xlink" x="0px" y="0px"
	 viewBox="0 0 64 64" style="enable-background:new 0 0 64 64;" xml:space="preserve">
<g>
	<path d="M8.1,55.9c0.7,0.7,1.6,1,2.4,1c0.9,0,1.7-0.3,2.4-1L32,37l19,19c0.7,0.7,1.6,1,2.4,1s1.7-0.3,2.4-1c1.4-1.4,1.4-3.6,0-5
		L37,32l19-19c1.4-1.4,1.4-3.6,0-5c-1.4-1.4-3.6-1.4-5,0L32,27L13,8.1c-1.4-1.4-3.6-1.4-5,0s-1.4,3.6,0,5L27,32L8.1,51
		C6.7,52.3,6.7,54.6,8.1,55.9z"/>
</g>
</svg>
