<?xml version="1.0" encoding="utf-8"?>
<!-- Generator: Adobe Illustrator 22.0.0, SVG Export Plug-In . SVG Version: 6.00 Build 0)  -->
<svg version="1.1" id="Layer_1" xmlns="http://www.w3.org/2000/svg" xmlns:xlink="http://www.w3.org/1999/xlink" x="0px" y="0px"
	 viewBox="0 0 64 64" style="enable-background:new 0 0 64 64;" xml:space="preserve">
<g>
	<g>
		<polygon points="59.1,59.1 5,59.1 5,51.7 3.5,51.7 3.5,60.6 60.7,60.6 60.7,32.9 59.1,32.9 		"/>
		<path d="M5,15.2h54v5.3h1.5V3.4h-57v37.3H5V15.2z M59.1,4.9v8.8H5V4.9H59.1z"/>
		<rect x="8.5" y="8.4" width="3" height="1.5"/>
		<rect x="14.4" y="8.4" width="3" height="1.5"/>
		<rect x="20.3" y="8.4" width="3" height="1.5"/>
		<rect x="29.7" y="8.4" width="26.1" height="1.5"/>
		<rect x="12.9" y="18.5" width="26.1" height="1.5"/>
		<rect x="7.3" y="23.8" width="31.8" height="1.5"/>
		<rect x="7.3" y="29.9" width="21.9" height="1.5"/>
		<path d="M9.1,21.8c1.4,0,2.6-1.2,2.6-2.6c0-1.4-1.2-2.6-2.6-2.6s-2.6,1.2-2.6,2.6C6.5,20.7,7.7,21.8,9.1,21.8z M9.1,18.1
			c0.6,0,1.1,0.5,1.1,1.1s-0.5,1.1-1.1,1.1S8,19.8,8,19.2S8.5,18.1,9.1,18.1z"/>
		<path d="M61.4,24.2c-1.4,0-2.6,1.2-2.6,2.6c0,0.3,0.1,0.6,0.2,0.9l-9.6,8c-0.4-0.3-0.9-0.5-1.5-0.5s-1.2,0.2-1.7,0.6l-3.7-2.6
			c0.2-0.4,0.3-0.8,0.3-1.2c0-1.4-1.2-2.6-2.6-2.6c-1.4,0-2.6,1.2-2.6,2.6c0,0.5,0.2,1,0.5,1.4l-9.3,9c-0.7-0.4-1.6-0.5-2.4-0.2
			l-3.7-3.7c0.2-0.4,0.4-0.9,0.4-1.4c0-1.4-1.2-2.6-2.6-2.6s-2.6,1.2-2.6,2.6c0,0.3,0.1,0.7,0.2,1L4.4,45.5
			c-0.5-0.5-1.1-0.7-1.8-0.7C1.2,44.8,0,46,0,47.4c0,1.4,1.2,2.6,2.6,2.6s2.6-1.2,2.6-2.6c0-0.2,0-0.4-0.1-0.6l13.6-7.7
			c0.4,0.3,0.9,0.5,1.5,0.5c0.3,0,0.7-0.1,1-0.2l3.7,3.7c-0.3,0.4-0.4,0.9-0.4,1.4c0,1.4,1.2,2.6,2.6,2.6c1.4,0,2.6-1.2,2.6-2.6
			c0-0.4-0.1-0.8-0.3-1.1l9.5-9.1c0.3,0.1,0.7,0.2,1,0.2c0.4,0,0.8-0.1,1.2-0.3l4,2.7c-0.1,0.3-0.1,0.5-0.1,0.8
			c0,1.4,1.2,2.6,2.6,2.6c1.4,0,2.6-1.2,2.6-2.6c0-0.3-0.1-0.7-0.2-1l9.5-8c0.4,0.3,1,0.5,1.6,0.5c1.4,0,2.6-1.2,2.6-2.6
			C64.1,25.4,62.9,24.2,61.4,24.2z M2.6,48.6c-0.6,0-1.1-0.5-1.1-1.1c0-1.5,2.2-1.5,2.2,0C3.7,48,3.2,48.6,2.6,48.6z M19.2,37
			c0-0.6,0.5-1.1,1.1-1.1s1.1,0.5,1.1,1.1c0,0.7-0.6,1.2-1.2,1.1C19.6,38.1,19.2,37.6,19.2,37z M27.3,45.8c-0.6,0-1.1-0.5-1.1-1.1
			c0-0.6,0.4-1.1,1.1-1.1s1.1,0.5,1.1,1.1C28.4,45.3,27.9,45.8,27.3,45.8z M39,32c0-0.6,0.5-1.1,1.1-1.1s1.1,0.5,1.1,1.1
			c0,0.6-0.5,1.1-1.1,1.1S39,32.6,39,32z M47.8,39.1c-0.6,0-1.1-0.5-1.1-1.1s0.5-1.1,1.1-1.1S49,37.3,49,38S48.4,39.1,47.8,39.1z
			 M61.4,28c-0.6,0-1.1-0.5-1.1-1.1s0.5-1.1,1.1-1.1s1.1,0.5,1.1,1.1C62.6,27.5,62,28,61.4,28z"/>
		<rect x="7.1" y="47.4" width="1.5" height="10.3"/>
		<rect x="11.5" y="44.6" width="1.5" height="13.1"/>
		<rect x="15.8" y="43.2" width="1.5" height="14.6"/>
		<rect x="20.2" y="41.8" width="1.5" height="16"/>
		<rect x="24.5" y="49.4" width="1.5" height="8.4"/>
		<rect x="29" y="48.5" width="1.5" height="9.3"/>
		<rect x="33.3" y="42.4" width="1.5" height="15.3"/>
		<rect x="37.6" y="37.9" width="1.5" height="19.9"/>
		<rect x="42.1" y="39" width="1.5" height="18.9"/>
		<rect x="46.4" y="42.8" width="1.5" height="15"/>
		<rect x="50.8" y="40.9" width="1.5" height="16.9"/>
		<rect x="55.1" y="36" width="1.5" height="21.8"/>
	</g>
</g>
</svg>
