<?xml version="1.0" encoding="utf-8"?>
<!-- Generator: Adobe Illustrator 22.0.0, SVG Export Plug-In . SVG Version: 6.00 Build 0)  -->
<svg version="1.1" id="Layer_1" xmlns="http://www.w3.org/2000/svg" xmlns:xlink="http://www.w3.org/1999/xlink" x="0px" y="0px"
	 viewBox="0 0 64 64" style="enable-background:new 0 0 64 64;" xml:space="preserve">
<g>
	<g>
		<path d="M29,8.8c0,1.7,1.5,3.2,3.2,3.2s3.2-1.5,3.2-3.2s-1.5-3.2-3.2-3.2S29,7.1,29,8.8z M32.2,7.5c0.9,0,1.7,0.6,1.7,1.3
			c0,0.6-0.6,1.5-1.5,1.5c-0.9,0-1.7-0.6-1.7-1.5S31.4,7.5,32.2,7.5z"/>
		<path d="M42.6,4.5c0-1.3-1.1-2.6-2.6-2.6c-1.5,0-2.6,1.1-2.6,2.6s1.1,2.6,2.6,2.6C41.5,7.1,42.6,5.8,42.6,4.5z M39.1,4.5
			c0-0.4,0.4-0.9,0.9-0.9c0.4,0,0.9,0.4,0.9,0.9c0,0.4-0.4,0.6-0.9,0.6S39.1,5,39.1,4.5z"/>
		<path d="M36.5,2.4c0-1.3-1.1-2.4-2.4-2.4s-2.6,1.1-2.6,2.4s1.1,2.4,2.4,2.4C35.2,4.7,36.5,3.9,36.5,2.4z M33.1,2.4
			c0-0.4,0.4-0.9,0.9-0.9c0.4,0,0.9,0.4,0.9,0.9s-0.2,1.1-0.9,1.1S33.1,3,33.1,2.4z"/>
	</g>
	<path d="M44.5,13.1H19.1c-0.4,0-0.9,0.4-0.9,0.9v6c0,0.4,0.2,0.6,0.6,0.9c0.2,0,0.2,0,0.4,0c0,0,2.4,0,3.9,1.5
		c0.9,0.9,1.5,2.4,1.5,4.1v30.4c0,3.9,3.2,7.1,7.3,7.1s7.3-3.2,7.3-7.1V26.3c0-1.7,0.4-3,1.5-4.1c1.5-1.5,3.9-1.5,3.9-1.5
		c0.2,0,0.2,0,0.4,0c0.2-0.2,0.6-0.4,0.6-0.9V14C45.4,13.6,44.9,13.1,44.5,13.1z M37.4,56.9c0,3-2.4,5.4-5.6,5.4s-5.6-2.4-5.6-5.4
		v-6.2h2.6c0.4,0,0.9-0.4,0.9-0.9c0-0.4-0.4-0.9-0.9-0.9h-2.6v-3.2h1.3c0.4,0,0.9-0.4,0.9-0.9S27.9,44,27.5,44h-1.3v-3.2h2.6
		c0.4,0,0.9-0.4,0.9-0.9S29.2,39,28.8,39h-2.6v-3.2h1.3c0.4,0,0.9-0.4,0.9-0.9c0-0.4-0.4-0.9-0.9-0.9h-1.3v-6.9h11v29.7H37.4z
		 M39.3,21.1c-1.1,1.1-1.7,2.6-1.9,4.3H26.2c-0.2-1.7-0.9-3.2-1.9-4.3L24,20.9h4.1c0.4,0,0.9-0.4,0.9-0.9c0-0.4-0.4-0.9-0.9-0.9h-8
		c-0.2,0-0.2,0-0.4,0v-4.3h23.9v4.3C42.8,19.4,40.8,19.6,39.3,21.1z"/>
</g>
</svg>
