<?xml version="1.0" encoding="utf-8"?>
<!-- Generator: Adobe Illustrator 22.0.0, SVG Export Plug-In . SVG Version: 6.00 Build 0)  -->
<svg version="1.1" id="Layer_1" xmlns="http://www.w3.org/2000/svg" xmlns:xlink="http://www.w3.org/1999/xlink" x="0px" y="0px"
	 viewBox="0 0 64 64" style="enable-background:new 0 0 64 64;" xml:space="preserve">
<g>
	<g>
		<path d="M58.8,0.3c-1.3,0-2.4,0.9-2.7,2.1H36.2V0H28v2.4H8C7.7,1.2,6.6,0.3,5.2,0.3c-1.6,0-2.8,1.3-2.8,2.8C2.4,4.7,3.7,6,5.2,6
			C6.6,6,7.7,5,8,3.8h20v0.1C18.9,5.7,11.7,13,10.2,22.2H7.4v6.5h6.5v-6.5h-2.1c1.5-8.3,8-15,16.3-16.7v2.6h8.3V5.6
			c8.3,1.7,14.7,8.4,16.3,16.7h-2.1v6.5h6.5v-6.5H54C52.5,13,45.4,5.7,36.2,3.9v0H56c0.3,1.2,1.4,2.1,2.7,2.1c1.6,0,2.8-1.3,2.8-2.8
			C61.6,1.6,60.4,0.3,58.8,0.3z M5.2,4.5c-0.7,0-1.3-0.6-1.3-1.3s0.6-1.3,1.3-1.3s1.3,0.6,1.3,1.3S6.1,4.5,5.2,4.5z M12.4,27.2H8.9
			v-3.4h3.4v3.4H12.4z M55.2,27.2h-3.4v-3.4h3.4V27.2z M34.7,6.7h-5.2V1.5h5.2V6.7z M58.8,4.5c-0.7,0-1.3-0.6-1.3-1.3
			s0.6-1.3,1.3-1.3c0.7,0,1.3,0.6,1.3,1.3S59.5,4.5,58.8,4.5z"/>
		<path d="M31.4,9.4c-8.5,0.3-15.4,7.5-15.5,15.9c-0.1,3.9,1.3,7.8,3.8,10.7c4,4.8,5.2,9.5,5.2,15h-2.1c-0.4,0-0.8,0.3-0.8,0.8v6.4
			c0,0.4,0.3,0.8,0.8,0.8h2.4v1.5c0,1.9,1.5,3.4,3.4,3.4h6.9c1.9,0,3.4-1.5,3.4-3.4v-1.5h2.4c0.4,0,0.8-0.3,0.8-0.8v-6.5
			c0-0.4-0.3-0.8-0.8-0.8h-2.1c0-5.7,1.4-10.6,5-14.7c2.6-2.9,4-6.8,4-10.7C48.4,16.5,40.7,9,31.4,9.4z M37.5,60.6
			c0,1.1-0.9,1.9-1.9,1.9h-6.9c-1.1,0-1.9-0.9-1.9-1.9v-1.2h10.8v1.2H37.5z M40.7,57.5H23.5v-4.9h17.2V57.5z M43.2,35.3
			c-3.8,4.3-5.4,9.8-5.4,15.6h-4.9V39.3l3.4-8.1c1.4-0.2,2.5-1.4,2.5-2.8c0-1.6-1.3-2.8-2.8-2.8c-1.6,0-2.8,1.3-2.8,2.8
			c0,1.1,0.7,2.1,1.7,2.6l-2.6,6.2L29.5,31c1-0.5,1.7-1.4,1.7-2.6c0-1.6-1.3-2.8-2.8-2.8c-1.6,0-2.8,1.3-2.8,2.8
			c0,1.5,1.1,2.6,2.5,2.8l3.4,8.1V51h-4.9c0-5.8-1.4-10.8-5.7-15.8c-2.3-2.7-3.5-6.2-3.4-9.7c0.1-7.7,6.5-14.1,14.1-14.4
			c8.4-0.3,15.3,6.4,15.3,14.7C46.8,29.2,45.5,32.7,43.2,35.3z M35.9,29.8c-0.7,0-1.3-0.6-1.3-1.3c0-0.7,0.6-1.3,1.3-1.3
			s1.3,0.6,1.3,1.3C37.2,29.2,36.6,29.8,35.9,29.8z M26.9,28.4c0-0.7,0.6-1.3,1.3-1.3c0.7,0,1.3,0.6,1.3,1.3s-0.6,1.3-1.3,1.3
			C27.5,29.7,26.9,29.2,26.9,28.4z"/>
	</g>
</g>
</svg>
