<?xml version="1.0" encoding="utf-8"?>
<!-- Generator: Adobe Illustrator 22.0.0, SVG Export Plug-In . SVG Version: 6.00 Build 0)  -->
<svg version="1.1" id="Layer_1" xmlns="http://www.w3.org/2000/svg" xmlns:xlink="http://www.w3.org/1999/xlink" x="0px" y="0px"
	 viewBox="0 0 64 64" style="enable-background:new 0 0 64 64;" xml:space="preserve">
<g>
	<path d="M63.3,3.6H0.7C0.3,3.6,0,3.9,0,4.3v45C0,49.7,0.3,50,0.7,50h30.6v5c-1.2,0.3-2,1.4-2,2.6c0,1.5,1.2,2.7,2.7,2.7
		c1.5,0,2.7-1.2,2.7-2.7c0-1.2-0.9-2.3-2-2.6v-5h30.6c0.4,0,0.7-0.3,0.7-0.7v-45C64,3.9,63.7,3.6,63.3,3.6z M33.4,57.7
		c0,0.7-0.6,1.3-1.3,1.3c-0.7,0-1.3-0.6-1.3-1.3c0-0.7,0.6-1.3,1.3-1.3C32.8,56.3,33.4,56.9,33.4,57.7z M62.6,5v40.5H1.4V5H62.6z
		 M1.4,48.6V47h61.1v1.6H1.4z"/>
	<path d="M6.5,8.1h50.6c0.4,0,0.7-0.3,0.7-0.7s-0.3-0.7-0.7-0.7H6.5C6.2,6.7,5.8,7,5.8,7.4S6.2,8.1,6.5,8.1z"/>
	<circle cx="45.9" cy="20.5" r="2.2"/>
	<path d="M28.3,21c-0.2,0.1-0.4,0.1-0.5,0.1c-0.2-0.1-0.3-0.2-0.4-0.3l0,0c-0.1-0.2-0.1-0.4-0.1-0.5l0.3-1.2l-1.2-0.3
		c-0.2-0.1-0.3-0.2-0.4-0.3C26,18.1,26,17.9,26,17.8c0.1-0.2,0.2-0.3,0.3-0.4c0.2-0.1,0.4-0.1,0.6,0l1.2,0.4l0.3-1.2
		c0.1-0.4,0.5-0.7,0.9-0.5c0.2,0.1,0.3,0.2,0.4,0.3c0.1,0.2,0.1,0.4,0.1,0.5l-0.4,1.2l1.2,0.3c0.2,0.1,0.3,0.2,0.4,0.3
		C31,19,31,19.2,31,19.3c-0.1,0.2-0.2,0.3-0.3,0.4c-0.2,0.1-0.4,0.1-0.6,0l-1.2-0.4l-0.2,1.2C28.7,20.8,28.5,20.9,28.3,21z"/>
	<path d="M21.1,28.2c-0.2,0.1-0.4,0.1-0.5,0.1c-0.2-0.1-0.3-0.2-0.4-0.3l0,0c-0.1-0.2-0.1-0.4-0.1-0.5l0.3-1.2l-1.2-0.3
		c-0.2-0.1-0.3-0.2-0.4-0.3c-0.1-0.2-0.1-0.4-0.1-0.5c0.1-0.2,0.2-0.3,0.3-0.4c0.1-0.1,0.4-0.1,0.6,0l1.2,0.4l0.3-1.2
		c0.1-0.4,0.5-0.7,0.9-0.5c0.2,0.1,0.3,0.2,0.4,0.3c0.1,0.2,0.1,0.4,0.1,0.5l-0.3,1.2l1.2,0.3c0.2,0.1,0.3,0.2,0.4,0.3
		c0.1,0.2,0.1,0.4,0.1,0.5c-0.1,0.2-0.2,0.3-0.3,0.4c-0.2,0.1-0.4,0.1-0.6,0l-1.2-0.4l-0.3,1.2C21.4,27.9,21.3,28.1,21.1,28.2z"/>
	<path d="M32.5,35.5c-0.2,0.1-0.4,0.1-0.5,0.1c-0.2-0.1-0.3-0.2-0.4-0.3l0,0c-0.1-0.2-0.1-0.4-0.1-0.5l0.3-1.2l-1.2-0.3
		c-0.2-0.1-0.3-0.2-0.4-0.3c-0.1-0.2-0.1-0.4-0.1-0.5c0.1-0.2,0.2-0.3,0.3-0.4c0.2-0.1,0.4-0.1,0.6,0l1.2,0.4l0.3-1.2
		c0.1-0.4,0.5-0.7,0.9-0.5c0.2,0.1,0.3,0.2,0.4,0.3c0.1,0.2,0.1,0.4,0.1,0.5l-0.3,1.2l1.2,0.3c0.2,0.1,0.3,0.2,0.4,0.3
		c0.1,0.1,0.1,0.4,0.1,0.5c-0.1,0.2-0.2,0.3-0.3,0.4c-0.2,0.1-0.4,0.1-0.6,0L33,33.8l-0.3,1.2C32.9,35.3,32.7,35.4,32.5,35.5z"/>
	<path d="M41,32.3c-0.2,0.1-0.4,0.1-0.5,0.1c-0.2-0.1-0.3-0.2-0.4-0.3l0,0C40,31.9,40,31.7,40,31.5l0.3-1.2L39.2,30
		c-0.2-0.1-0.3-0.2-0.4-0.3c-0.1-0.2-0.1-0.4-0.1-0.5c0.1-0.2,0.2-0.3,0.3-0.4c0.2-0.1,0.4-0.1,0.6,0l1.2,0.4l0.3-1.2
		c0.1-0.4,0.5-0.7,0.9-0.5c0.2,0.1,0.3,0.2,0.4,0.3c0.1,0.2,0.1,0.4,0.1,0.5l-0.5,1.1l1.2,0.3c0.2,0.1,0.3,0.2,0.4,0.3
		c0.1,0.2,0.1,0.4,0.1,0.5c-0.1,0.2-0.2,0.3-0.3,0.4c-0.2,0.1-0.4,0.1-0.6,0l-1-0.3l-0.3,1.2C41.3,32.1,41.2,32.3,41,32.3z"/>
	<path d="M37.2,18.3c-0.3,0.4-0.3,1,0.1,1.3l0.9,0.7c-11.3,1.8-14.1,9.6-14.7,12.5c-1.2,0.3-2.2,1.4-2.2,2.7c0,0.3,0.1,0.6,0.1,0.9
		c0.4,1.2,1.4,2,2.7,2c0.8,0,1.5-0.3,2-0.9c0.5-0.5,0.9-1.2,0.9-2c0-1.2-0.7-2.2-1.8-2.7c0.6-2.6,3-9.2,13-10.9l-0.8,1.1
		c-0.2,0.3-0.2,0.5-0.1,0.8c0.1,0.2,0.2,0.3,0.3,0.5c0.4,0.3,1,0.2,1.2-0.2l2-2.9c0.3-0.4,0.2-0.9-0.1-1.2l-2.4-1.9
		C38.1,17.9,37.5,17.9,37.2,18.3z M24.2,34.6c0.5,0,0.9,0.3,1,0.7c0.1,0.1,0.1,0.2,0.1,0.3c0,0.3-0.1,0.5-0.3,0.7
		c-0.2,0.2-0.5,0.3-0.7,0.3c-0.6,0-1-0.5-1-1l0,0C23.2,35,23.6,34.6,24.2,34.6z"/>
</g>
</svg>
