<?xml version="1.0" encoding="utf-8"?>
<!-- Generator: Adobe Illustrator 22.0.0, SVG Export Plug-In . SVG Version: 6.00 Build 0)  -->
<svg version="1.1" id="Layer_1" xmlns="http://www.w3.org/2000/svg" xmlns:xlink="http://www.w3.org/1999/xlink" x="0px" y="0px"
	 viewBox="0 0 64 64" style="enable-background:new 0 0 64 64;" xml:space="preserve">
<g>
	<path d="M46.3,0H17.7C7.9,0,0,7.9,0,17.7v28.7C0,56.1,7.9,64,17.7,64h28.7C56.1,64,64,56.1,64,46.3V17.7C64,7.9,56.1,0,46.3,0
		L46.3,0z M58.3,46.3c0,6.6-5.4,12-12,12H17.7c-6.6,0-12-5.4-12-12V17.7c0-6.6,5.4-12,12-12h28.7c6.6,0,12,5.4,12,12V46.3z
		 M58.3,46.3"/>
	<path d="M32,15.5c-9.1,0-16.5,7.4-16.5,16.5c0,9.1,7.4,16.5,16.5,16.5c9.1,0,16.5-7.4,16.5-16.5C48.5,22.9,41.1,15.5,32,15.5
		L32,15.5z M32,42.8c-6,0-10.8-4.8-10.8-10.8c0-6,4.9-10.8,10.8-10.8S42.8,26,42.8,32C42.8,38,38,42.8,32,42.8L32,42.8z M32,42.8"/>
	<path d="M49.2,10.7c-1.1,0-2.2,0.4-2.9,1.2c-0.8,0.8-1.2,1.8-1.2,2.9c0,1.1,0.4,2.2,1.2,2.9c0.8,0.8,1.8,1.2,2.9,1.2
		c1.1,0,2.2-0.4,2.9-1.2c0.8-0.8,1.2-1.9,1.2-2.9c0-1.1-0.4-2.2-1.2-2.9C51.4,11.1,50.3,10.7,49.2,10.7L49.2,10.7z M49.2,10.7"/>
</g>
</svg>
