<?xml version="1.0" encoding="utf-8"?>
<!-- Generator: Adobe Illustrator 22.0.0, SVG Export Plug-In . SVG Version: 6.00 Build 0)  -->
<svg version="1.1" id="Layer_1" xmlns="http://www.w3.org/2000/svg" xmlns:xlink="http://www.w3.org/1999/xlink" x="0px" y="0px"
	 viewBox="0 0 64 64" style="enable-background:new 0 0 64 64;" xml:space="preserve">
<g>
	<path d="M64,38.9v23.7H50.3V40.5c0-5.5-2-9.3-6.9-9.3c-3.8,0-6,2.5-7,5c-0.4,0.9-0.5,2.1-0.5,3.3v23H22.1c0,0,0.2-37.4,0-41.3h13.7
		v5.8c0,0-0.1,0.1-0.1,0.1h0.1v-0.1c1.8-2.8,5.1-6.8,12.4-6.8C57.2,20.3,64,26.2,64,38.9L64,38.9z M7.8,1.4C3.1,1.4,0,4.5,0,8.6
		c0,4,3,7.1,7.6,7.1h0.1c4.8,0,7.8-3.2,7.8-7.1C15.3,4.5,12.5,1.4,7.8,1.4L7.8,1.4z M0.8,62.6h13.7V21.3H0.8V62.6z M0.8,62.6"/>
</g>
</svg>
