<?xml version="1.0" encoding="utf-8"?>
<!-- Generator: Adobe Illustrator 22.0.0, SVG Export Plug-In . SVG Version: 6.00 Build 0)  -->
<svg version="1.1" id="Layer_1" xmlns="http://www.w3.org/2000/svg" xmlns:xlink="http://www.w3.org/1999/xlink" x="0px" y="0px"
	 viewBox="0 0 64 64" style="enable-background:new 0 0 64 64;" xml:space="preserve">
<style type="text/css">
	.st0{fill:#DE473D;}
</style>
<g>
	<path class="st0" d="M9.2,20.7H8.1c-0.5,0-1,0.2-1.3,0.5c-0.6-0.4-1.5-0.6-2.6-0.6c-1.1,0-2,0.3-2.6,0.8c-0.6,0.5-0.9,1.2-0.9,2
		c0,0.8,0.2,1.4,0.6,1.9c0.2,0.2,0.2,0.3,0,0.4c-0.6,0.3-0.9,0.6-0.9,1c0,0.3,0.1,0.5,0.3,0.7c0.2,0.2,0.3,0.3,0.5,0.3
		c0.1,0,0.2,0.1,0.2,0.2c0,0.1,0,0.1-0.1,0.1c-0.4,0.2-0.7,0.5-0.9,0.8C0.1,29.2,0,29.6,0,29.9c0,0.4,0.1,0.7,0.2,1
		c0.5,1,1.9,1.5,4.1,1.5c0.8,0,1.5-0.1,2-0.2c1.5-0.4,2.3-1.1,2.3-2.4c0-0.4-0.1-0.7-0.2-1c-0.5-1-1.9-1.5-4.1-1.5H2.2
		c-0.9,0-1.3-0.2-1.3-0.6c0-0.3,0.1-0.4,0.3-0.6C1.4,26,1.7,25.9,2,25.8c0.6,0.4,1.4,0.5,2.5,0.5c1.1,0,2-0.3,2.6-0.8
		C7.6,25,8,24.4,8,23.6c0-0.8-0.2-1.4-0.6-1.9c-0.1-0.1-0.1-0.2,0-0.4c0.3-0.1,0.5-0.2,0.8-0.2h0.6c0.2,0,0.2,0.1,0.2,0.2v1.5
		c0,0.2,0.1,0.2,0.2,0.2c0.2,0,0.2-0.1,0.2-0.2v-1.9C9.4,20.7,9.4,20.7,9.2,20.7z M4.3,27.9c2.5,0,3.8,0.7,3.8,2.1
		c0,0.3,0,0.6-0.2,0.8C7.5,31.6,6.3,32,4.3,32c-2.5,0-3.8-0.7-3.8-2.1C0.5,28.5,1.8,27.9,4.3,27.9z M7.5,23.5c0,0.7-0.2,1.3-0.7,1.8
		c-0.5,0.4-1.3,0.6-2.4,0.6c-1.1,0-1.9-0.2-2.4-0.6c-0.5-0.4-0.7-1-0.7-1.8c0-0.7,0.2-1.3,0.7-1.8c0.5-0.4,1.3-0.6,2.4-0.6
		c1.1,0,1.9,0.2,2.4,0.6C7.2,22.1,7.5,22.7,7.5,23.5z"/>
	<path class="st0" d="M11.6,28.5h-1.2c-0.2,0-0.2,0.1-0.2,0.2c0,0.2,0.1,0.2,0.2,0.2h3.3c0.2,0,0.2-0.1,0.2-0.2
		c0-0.2-0.1-0.2-0.2-0.2h-1.2c-0.2,0-0.2-0.1-0.2-0.2V21c0-0.2-0.1-0.2-0.2-0.2h-1.7c-0.2,0-0.2,0.1-0.2,0.2c0,0.2,0.1,0.2,0.2,0.2
		h1.2c0.2,0,0.2,0.1,0.2,0.2v6.8C11.9,28.4,11.8,28.5,11.6,28.5z"/>
	<path class="st0" d="M12,19.4c0.2,0,0.3-0.1,0.5-0.2c0.1-0.1,0.2-0.3,0.2-0.5c0-0.2-0.1-0.3-0.2-0.5c-0.1-0.1-0.3-0.2-0.5-0.2
		c-0.2,0-0.3,0.1-0.5,0.2c-0.1,0.1-0.2,0.3-0.2,0.5c0,0.2,0.1,0.3,0.2,0.5C11.7,19.3,11.9,19.4,12,19.4z"/>
	<path class="st0" d="M19.2,29.2c1.2,0,2.2-0.4,2.9-1.2c0.8-0.8,1.1-1.8,1.1-3.1c0-1.3-0.4-2.3-1.1-3.1c-0.8-0.8-1.7-1.2-2.9-1.2
		c-1.2,0-2.2,0.4-2.9,1.2c-0.8,0.8-1.1,1.8-1.1,3.1c0,1.3,0.4,2.3,1.1,3.1C17,28.8,18,29.2,19.2,29.2z M16.6,22.1
		c0.7-0.7,1.5-1,2.6-1c1.1,0,1.9,0.3,2.6,1c0.7,0.7,1,1.6,1,2.8c0,1.2-0.3,2.1-1,2.8c-0.6,0.7-1.5,1-2.6,1c-1.1,0-1.9-0.3-2.6-1
		c-0.6-0.7-1-1.6-1-2.8C15.6,23.7,15.9,22.8,16.6,22.1z"/>
	<path class="st0" d="M32.8,21.2h1.1c0.2,0,0.2-0.1,0.2-0.2c0-0.2-0.1-0.2-0.2-0.2h-3.1c-0.2,0-0.2,0.1-0.2,0.2
		c0,0.2,0.1,0.2,0.2,0.2h1c0.2,0,0.3,0.1,0.2,0.2l-2.9,6.7c0,0.1-0.1,0.1-0.1,0.1c0,0-0.1,0-0.1-0.1L26,21.5c-0.1-0.2,0-0.2,0.2-0.2
		h1c0.2,0,0.2-0.1,0.2-0.2c0-0.2-0.1-0.2-0.2-0.2H24c-0.2,0-0.2,0.1-0.2,0.2c0,0.2,0.1,0.2,0.2,0.2h1.1c0.1,0,0.3,0.1,0.3,0.2
		l3.2,7.5c0.1,0.2,0.2,0.2,0.3,0.2c0.1,0,0.2-0.1,0.3-0.2l3.2-7.5C32.6,21.3,32.7,21.2,32.8,21.2z"/>
	<path class="st0" d="M40.7,27.7c0.1-0.1,0.2-0.1,0.2-0.1c0,0,0.1,0.1,0.1,0.2v0.9c0,0.2,0.1,0.2,0.2,0.2h1.7c0.2,0,0.2-0.1,0.2-0.2
		c0-0.2-0.1-0.2-0.2-0.2h-1.2c-0.2,0-0.2-0.1-0.2-0.2v-5c0-0.8-0.3-1.4-0.8-1.9c-0.6-0.5-1.3-0.8-2.2-0.8c-1.2,0-2.2,0.3-3,1
		c-0.1,0.1-0.1,0.2,0,0.3c0.1,0.1,0.2,0.1,0.4,0c0.2-0.1,0.5-0.3,1-0.5c0.5-0.2,1-0.3,1.7-0.3c0.7,0,1.3,0.2,1.8,0.6
		c0.5,0.4,0.7,1,0.7,1.6V24c0,0.2-0.1,0.2-0.2,0.2H38c-1,0-1.8,0.2-2.4,0.7c-0.6,0.5-0.9,1.1-0.9,1.8c0,0.7,0.3,1.3,0.8,1.8
		c0.5,0.5,1.3,0.7,2.3,0.7c0.6,0,1.1-0.2,1.7-0.5C40,28.4,40.4,28.1,40.7,27.7z M37.7,28.7c-0.9,0-1.5-0.2-1.9-0.6
		c-0.4-0.4-0.6-0.8-0.6-1.4c0-0.6,0.2-1.1,0.7-1.4c0.5-0.4,1.2-0.6,2.1-0.6h2.7c0.2,0,0.2,0.1,0.2,0.2v1.5c-0.1,0.2-0.3,0.4-0.4,0.6
		C39.8,28.1,38.8,28.7,37.7,28.7z"/>
	<path class="st0" d="M45.5,28.5h-1.2c-0.2,0-0.2,0.1-0.2,0.2c0,0.2,0.1,0.2,0.2,0.2h3.1c0.2,0,0.2-0.1,0.2-0.2
		c0-0.2-0.1-0.2-0.2-0.2h-1c-0.2,0-0.2-0.1-0.2-0.2v-5c0.2-0.4,0.5-0.8,0.9-1.1c0.8-0.8,1.5-1.1,2.4-1.1c0.8,0,1.5,0.2,2,0.7
		c0.5,0.5,0.7,1.2,0.7,2.1v4.4c0,0.2-0.1,0.2-0.2,0.2h-1c-0.2,0-0.2,0.1-0.2,0.2c0,0.2,0.1,0.2,0.2,0.2h3.1c0.2,0,0.2-0.1,0.2-0.2
		c0-0.2-0.1-0.2-0.2-0.2h-1.2c-0.2,0-0.2-0.1-0.2-0.2v-4.4c0-1.1-0.3-1.9-0.9-2.5c-0.6-0.6-1.4-0.9-2.4-0.9c-1,0-2,0.5-2.9,1.5
		c-0.1,0.1-0.2,0.1-0.2,0.1c0,0-0.1-0.1-0.1-0.2V21c0-0.2-0.1-0.2-0.2-0.2h-1.7c-0.2,0-0.2,0.1-0.2,0.2c0,0.2,0.1,0.2,0.2,0.2h1.2
		c0.2,0,0.2,0.1,0.2,0.2v6.8C45.7,28.4,45.6,28.5,45.5,28.5z"/>
	<path class="st0" d="M56,28.5c0.5,0.5,1.3,0.7,2.3,0.7c0.6,0,1.1-0.2,1.7-0.5c0.5-0.3,0.9-0.7,1.2-1c0.1-0.1,0.2-0.1,0.2-0.1
		c0,0,0.1,0.1,0.1,0.2v0.9c0,0.2,0.1,0.2,0.2,0.2h1.7c0.2,0,0.2-0.1,0.2-0.2c0-0.2-0.1-0.2-0.2-0.2h-1.2c-0.2,0-0.2-0.1-0.2-0.2v-5
		c0-0.8-0.3-1.4-0.8-1.9c-0.6-0.5-1.3-0.8-2.2-0.8c-1.2,0-2.2,0.3-3,1c-0.1,0.1-0.1,0.2,0,0.3c0.1,0.1,0.2,0.1,0.4,0
		c0.2-0.1,0.5-0.3,1-0.5c0.5-0.2,1-0.3,1.7-0.3c0.7,0,1.3,0.2,1.8,0.6c0.5,0.4,0.7,1,0.7,1.6V24c0,0.2-0.1,0.2-0.2,0.2h-2.7
		c-1,0-1.8,0.2-2.4,0.7c-0.6,0.5-0.9,1.1-0.9,1.8C55.2,27.4,55.5,28,56,28.5z M56.4,25.3c0.5-0.4,1.2-0.6,2.1-0.6h2.7
		c0.2,0,0.2,0.1,0.2,0.2v1.5c-0.1,0.2-0.3,0.4-0.4,0.6c-0.8,1.1-1.8,1.6-2.8,1.6c-0.9,0-1.5-0.2-1.9-0.6c-0.4-0.4-0.6-0.8-0.6-1.4
		C55.7,26.1,55.9,25.7,56.4,25.3z"/>
	<path class="st0" d="M8.3,45.3H7.1c-0.2,0-0.2-0.1-0.2-0.2v-5c0-0.8-0.3-1.4-0.8-1.9c-0.6-0.5-1.3-0.8-2.2-0.8c-1.2,0-2.2,0.3-3,1
		c-0.1,0.1-0.1,0.2,0,0.3c0.1,0.1,0.2,0.1,0.4,0c0.2-0.1,0.5-0.3,1-0.5c0.5-0.2,1-0.3,1.7-0.3c0.7,0,1.3,0.2,1.8,0.6
		c0.5,0.4,0.7,1,0.7,1.6v0.7c0,0.2-0.1,0.2-0.2,0.2H3.4c-1,0-1.8,0.2-2.4,0.7c-0.6,0.5-0.9,1.1-0.9,1.8c0,0.7,0.3,1.3,0.8,1.8
		c0.5,0.5,1.3,0.7,2.3,0.7c0.6,0,1.1-0.2,1.7-0.5c0.5-0.3,0.9-0.7,1.2-1c0.1-0.1,0.2-0.1,0.2-0.1c0,0,0.1,0.1,0.1,0.2v0.9
		c0,0.2,0.1,0.2,0.2,0.2h1.7c0.2,0,0.2-0.1,0.2-0.2C8.5,45.3,8.4,45.3,8.3,45.3z M6.4,43.2c-0.1,0.2-0.3,0.4-0.4,0.6
		c-0.8,1.1-1.8,1.6-2.8,1.6c-0.9,0-1.5-0.2-1.9-0.6c-0.4-0.4-0.6-0.8-0.6-1.4c0-0.6,0.2-1.1,0.7-1.4c0.5-0.4,1.2-0.6,2.1-0.6h2.7
		c0.2,0,0.2,0.1,0.2,0.2V43.2z"/>
	<path class="st0" d="M19.5,45.3h-1.2c-0.2,0-0.2-0.1-0.2-0.2v-4.4c0-1.1-0.3-1.9-0.9-2.5c-0.6-0.6-1.4-0.9-2.4-0.9
		c-1,0-2,0.5-2.9,1.5c-0.1,0.1-0.2,0.1-0.2,0.1c0,0-0.1-0.1-0.1-0.2v-0.9c0-0.2-0.1-0.2-0.2-0.2H9.7c-0.2,0-0.2,0.1-0.2,0.2
		c0,0.2,0.1,0.2,0.2,0.2h1.2c0.2,0,0.2,0.1,0.2,0.2V45c0,0.2-0.1,0.2-0.2,0.2H9.7c-0.2,0-0.2,0.1-0.2,0.2c0,0.2,0.1,0.2,0.2,0.2h3.1
		c0.2,0,0.2-0.1,0.2-0.2c0-0.2-0.1-0.2-0.2-0.2h-1c-0.2,0-0.2-0.1-0.2-0.2v-5c0.2-0.4,0.5-0.8,0.9-1.1c0.8-0.8,1.5-1.1,2.4-1.1
		c0.8,0,1.5,0.2,2,0.7c0.5,0.5,0.7,1.2,0.7,2.1V45c0,0.2-0.1,0.2-0.2,0.2h-1c-0.2,0-0.2,0.1-0.2,0.2c0,0.2,0.1,0.2,0.2,0.2h3.1
		c0.2,0,0.2-0.1,0.2-0.2C19.7,45.3,19.7,45.3,19.5,45.3z"/>
	<path class="st0" d="M27.7,42.3c-0.4-0.3-0.9-0.5-1.5-0.7c-0.3-0.1-0.7-0.1-1-0.2c-0.4-0.1-0.8-0.1-1.1-0.2
		c-0.9-0.1-1.5-0.3-1.9-0.6c-0.4-0.3-0.6-0.7-0.6-1.2c0-0.5,0.2-0.9,0.7-1.2c0.5-0.3,1.2-0.5,2.1-0.5c0.5,0,0.9,0.1,1.3,0.3
		c0.7,0.4,1.3,0.8,1.8,1.5v0.8c0,0.2,0.1,0.2,0.2,0.2c0.2,0,0.2-0.1,0.2-0.2v-2.7c0-0.2-0.1-0.2-0.2-0.2c-0.2,0-0.2,0.1-0.2,0.2v0.7
		c0,0.1,0,0.2-0.1,0.2c0,0.1-0.1,0-0.2-0.1c-0.8-0.8-1.8-1.2-2.8-1.2c-1.1,0-1.9,0.2-2.5,0.6c-0.6,0.4-0.9,0.9-0.9,1.5
		c0,0.6,0.2,1,0.5,1.3c0.3,0.3,0.8,0.6,1.5,0.7c0.3,0.1,0.8,0.2,1.5,0.3c0.7,0.1,1.3,0.2,1.8,0.3c1,0.2,1.6,0.7,1.6,1.5
		c0,0.5-0.3,1-0.8,1.3c-0.5,0.3-1.3,0.5-2.2,0.5c-0.6,0-1-0.1-1.5-0.3c-0.8-0.3-1.4-0.8-1.9-1.5v-0.8c0-0.2-0.1-0.2-0.2-0.2
		c-0.2,0-0.2,0.1-0.2,0.2v2.7c0,0.2,0.1,0.2,0.2,0.2c0.2,0,0.2-0.1,0.2-0.2v-0.7c0-0.1,0-0.2,0-0.2c0-0.1,0.1,0,0.2,0.1
		c0.1,0.1,0.3,0.3,0.5,0.4c0.8,0.5,1.6,0.8,2.5,0.8c1.2,0,2-0.2,2.6-0.7c0.6-0.4,0.9-1,0.9-1.6C28.2,43.1,28,42.6,27.7,42.3z"/>
	<path class="st0" d="M34,37.3c-1.2,0-2.2,0.4-2.9,1.2c-0.8,0.8-1.1,1.8-1.1,3.1c0,1.3,0.4,2.3,1.1,3.1c0.8,0.8,1.7,1.2,2.9,1.2
		c1.2,0,2.2-0.4,2.9-1.2c0.8-0.8,1.1-1.8,1.1-3.1c0-1.3-0.4-2.3-1.1-3.1C36.2,37.7,35.2,37.3,34,37.3z M36.6,44.4
		c-0.6,0.7-1.5,1-2.6,1c-1.1,0-1.9-0.3-2.6-1c-0.6-0.7-1-1.6-1-2.8s0.3-2.1,1-2.8c0.7-0.7,1.5-1,2.6-1c1.1,0,1.9,0.3,2.6,1
		c0.7,0.7,1,1.6,1,2.8S37.3,43.7,36.6,44.4z"/>
	<path class="st0" d="M47.8,45.3h-1.2c-0.2,0-0.2-0.1-0.2-0.2v-5c0-0.8-0.3-1.4-0.8-1.9c-0.6-0.5-1.3-0.8-2.2-0.8
		c-1.2,0-2.2,0.3-3,1c-0.1,0.1-0.1,0.2,0,0.3c0.1,0.1,0.2,0.1,0.4,0c0.2-0.1,0.5-0.3,1-0.5c0.5-0.2,1-0.3,1.7-0.3
		c0.7,0,1.3,0.2,1.8,0.6c0.5,0.4,0.7,1,0.7,1.6v0.7c0,0.2-0.1,0.2-0.2,0.2h-2.7c-1,0-1.8,0.2-2.4,0.7c-0.6,0.5-0.9,1.1-0.9,1.8
		c0,0.7,0.3,1.3,0.8,1.8c0.5,0.5,1.3,0.7,2.3,0.7c0.6,0,1.1-0.2,1.7-0.5c0.5-0.3,0.9-0.7,1.2-1c0.1-0.1,0.2-0.1,0.2-0.1
		c0,0,0.1,0.1,0.1,0.2v0.9c0,0.2,0.1,0.2,0.2,0.2h1.7c0.2,0,0.2-0.1,0.2-0.2C48,45.3,48,45.3,47.8,45.3z M45.9,43.2
		c-0.1,0.2-0.3,0.4-0.4,0.6c-0.8,1.1-1.8,1.6-2.8,1.6c-0.9,0-1.5-0.2-1.9-0.6c-0.4-0.4-0.6-0.8-0.6-1.4c0-0.6,0.2-1.1,0.7-1.4
		c0.5-0.4,1.2-0.6,2.1-0.6h2.7c0.2,0,0.2,0.1,0.2,0.2V43.2z"/>
	<path class="st0" d="M52.6,45.3h-1.2c-0.2,0-0.2-0.1-0.2-0.2v-7.3c0-0.2-0.1-0.2-0.2-0.2h-1.7c-0.2,0-0.2,0.1-0.2,0.2
		c0,0.2,0.1,0.2,0.2,0.2h1.2c0.2,0,0.2,0.1,0.2,0.2V45c0,0.2-0.1,0.2-0.2,0.2h-1.2c-0.2,0-0.2,0.1-0.2,0.2c0,0.2,0.1,0.2,0.2,0.2
		h3.3c0.2,0,0.2-0.1,0.2-0.2C52.8,45.3,52.7,45.3,52.6,45.3z"/>
	<path class="st0" d="M50.4,35c-0.1,0.1-0.2,0.3-0.2,0.5s0.1,0.3,0.2,0.5c0.1,0.1,0.3,0.2,0.5,0.2c0.2,0,0.3-0.1,0.5-0.2
		c0.1-0.1,0.2-0.3,0.2-0.5s-0.1-0.3-0.2-0.5c-0.1-0.1-0.3-0.2-0.5-0.2C50.6,34.8,50.5,34.9,50.4,35z"/>
	<path class="st0" d="M63.8,45.3h-1.2c-0.2,0-0.2-0.1-0.2-0.2v-4.4c0-1.1-0.3-1.9-0.9-2.5c-0.6-0.6-1.4-0.9-2.4-0.9s-2,0.5-2.9,1.5
		c-0.1,0.1-0.2,0.1-0.2,0.1c0,0-0.1-0.1-0.1-0.2v-0.9c0-0.2-0.1-0.2-0.2-0.2H54c-0.2,0-0.2,0.1-0.2,0.2c0,0.2,0.1,0.2,0.2,0.2h1.2
		c0.2,0,0.2,0.1,0.2,0.2V45c0,0.2-0.1,0.2-0.2,0.2H54c-0.2,0-0.2,0.1-0.2,0.2c0,0.2,0.1,0.2,0.2,0.2h3.1c0.2,0,0.2-0.1,0.2-0.2
		c0-0.2-0.1-0.2-0.2-0.2h-1c-0.2,0-0.2-0.1-0.2-0.2v-5c0.2-0.4,0.5-0.8,0.9-1.1c0.8-0.8,1.5-1.1,2.4-1.1c0.8,0,1.5,0.2,2,0.7
		c0.5,0.5,0.7,1.2,0.7,2.1V45c0,0.2-0.1,0.2-0.2,0.2h-1c-0.2,0-0.2,0.1-0.2,0.2c0,0.2,0.1,0.2,0.2,0.2h3.1c0.2,0,0.2-0.1,0.2-0.2
		C64,45.3,63.9,45.3,63.8,45.3z"/>
</g>
</svg>
