<?xml version="1.0" encoding="utf-8"?>
<!-- Generator: Adobe Illustrator 22.0.0, SVG Export Plug-In . SVG Version: 6.00 Build 0)  -->
<svg version="1.1" id="Layer_1" xmlns="http://www.w3.org/2000/svg" xmlns:xlink="http://www.w3.org/1999/xlink" x="0px" y="0px"
	 viewBox="0 0 64 64" style="enable-background:new 0 0 64 64;" xml:space="preserve">
<style type="text/css">
	.st0{fill:#DE473D;}
</style>
<g>
	<path class="st0" d="M9.6,22.8v-1.9c0-0.2-0.1-0.3-0.3-0.3H8.2c-0.5,0-1,0.2-1.3,0.5c-0.6-0.4-1.5-0.6-2.6-0.6
		c-1.1,0-2,0.3-2.6,0.8c-0.6,0.5-0.9,1.2-0.9,2.1c0,0.8,0.2,1.5,0.6,1.9c0.1,0.1,0.1,0.2,0.1,0.2c0,0,0,0-0.1,0.1
		c-0.6,0.3-0.9,0.6-0.9,1.1c0,0.3,0.1,0.5,0.3,0.7c0.2,0.2,0.3,0.3,0.5,0.4c0.1,0.1,0.2,0.1,0.2,0.1c0,0,0,0-0.1,0.1
		c-0.4,0.2-0.7,0.5-0.9,0.9C0.1,29.2,0,29.5,0,29.9c0,0.4,0.1,0.8,0.2,1.1c0.5,1,1.9,1.6,4.1,1.6c0.8,0,1.5-0.1,2-0.2
		C8,32,8.8,31.2,8.7,29.9c0-0.4-0.1-0.8-0.2-1.1c-0.5-1-1.9-1.6-4.1-1.6H2.3c-0.8,0-1.2-0.2-1.2-0.6c0-0.2,0.1-0.4,0.3-0.5
		C1.5,26.1,1.7,26,2,25.9c0.6,0.3,1.4,0.5,2.5,0.5c1.1,0,2-0.3,2.6-0.8c0.6-0.5,0.9-1.2,0.9-2c0-0.8-0.2-1.5-0.6-2l0,0
		c0,0-0.1-0.1-0.1-0.1c0,0,0-0.1,0.1-0.1c0.3-0.1,0.5-0.2,0.7-0.2h0.6c0.1,0,0.2,0,0.2,0.2v1.5c0,0.2,0.1,0.3,0.3,0.3
		C9.5,23.2,9.6,23,9.6,22.8z M4.4,27.9c2.5,0,3.7,0.7,3.7,2c0,0.3,0,0.5-0.2,0.8c-0.4,0.8-1.6,1.2-3.6,1.2c-2.5,0-3.7-0.7-3.7-2
		S1.9,27.9,4.4,27.9z M7.4,23.5c0,0.7-0.2,1.3-0.7,1.7c-0.5,0.4-1.3,0.6-2.4,0.6c-1.1,0-1.9-0.2-2.4-0.6c-0.5-0.4-0.7-1-0.7-1.7
		c0-0.7,0.2-1.3,0.7-1.7c0.5-0.4,1.3-0.6,2.4-0.6c1.1,0,1.9,0.2,2.4,0.6C7.2,22.2,7.4,22.8,7.4,23.5z"/>
	<path class="st0" d="M12.1,19.5c0.2,0,0.4-0.1,0.5-0.2c0.1-0.1,0.2-0.3,0.2-0.5c0-0.2-0.1-0.4-0.2-0.5c-0.1-0.1-0.3-0.2-0.5-0.2
		c-0.2,0-0.4,0.1-0.5,0.2c-0.1,0.1-0.2,0.3-0.2,0.5c0,0.2,0.1,0.4,0.2,0.5C11.7,19.4,11.9,19.5,12.1,19.5z"/>
	<path class="st0" d="M11.7,28.5h-1.2c-0.2,0-0.3,0.1-0.3,0.3c0,0.2,0.1,0.3,0.3,0.3h3.3c0.2,0,0.3-0.1,0.3-0.3
		c0-0.2-0.1-0.3-0.3-0.3h-1.2c-0.1,0-0.2,0-0.2-0.2V21c0-0.2-0.1-0.3-0.3-0.3h-1.7c-0.2,0-0.3,0.1-0.3,0.3c0,0.2,0.1,0.3,0.3,0.3
		h1.2c0.1,0,0.2,0,0.2,0.2v6.8C11.8,28.4,11.8,28.5,11.7,28.5z"/>
	<path class="st0" d="M19.2,29.3c1.2,0,2.2-0.4,3-1.2c0.8-0.8,1.1-1.9,1.1-3.2c0-1.3-0.4-2.4-1.1-3.2c-0.8-0.8-1.8-1.2-3-1.2
		c-1.2,0-2.2,0.4-3,1.2c-0.8,0.8-1.1,1.9-1.1,3.2s0.4,2.4,1.1,3.2C17,28.9,18,29.3,19.2,29.3z M16.7,22.2c0.6-0.7,1.5-1,2.5-1
		c1,0,1.9,0.3,2.5,1c0.6,0.7,1,1.6,1,2.7c0,1.1-0.3,2-0.9,2.7c-0.6,0.7-1.5,1-2.5,1c-1.1,0-1.9-0.3-2.5-1c-0.6-0.7-0.9-1.6-0.9-2.7
		C15.7,23.8,16,22.9,16.7,22.2z"/>
	<path class="st0" d="M32.8,21.3h1.1c0.2,0,0.3-0.1,0.3-0.3c0-0.2-0.1-0.3-0.3-0.3h-3.1c-0.2,0-0.3,0.1-0.3,0.3
		c0,0.2,0.1,0.3,0.3,0.3h1c0.1,0,0.1,0,0.1,0c0,0,0,0,0,0.1L29,28.2c0,0,0,0,0,0c0,0,0,0,0-0.1l-2.9-6.7c0-0.1,0-0.1,0-0.1
		c0,0,0,0,0.1,0h1c0.2,0,0.3-0.1,0.3-0.3c0-0.2-0.1-0.3-0.3-0.3h-3.1c-0.2,0-0.3,0.1-0.3,0.3c0,0.2,0.1,0.3,0.3,0.3h1.1
		c0.1,0,0.2,0.1,0.3,0.2l3.2,7.4c0.1,0.2,0.2,0.3,0.4,0.3c0.2,0,0.3-0.1,0.4-0.3l3.2-7.4C32.6,21.4,32.7,21.3,32.8,21.3z"/>
	<path class="st0" d="M40.7,27.7C40.8,27.7,40.8,27.7,40.7,27.7c0.1,0,0.1,0,0.1,0.1v0.9c0,0.2,0.1,0.3,0.3,0.3h1.7
		c0.2,0,0.3-0.1,0.3-0.3c0-0.2-0.1-0.3-0.3-0.3h-1.2c-0.1,0-0.2,0-0.2-0.2v-5c0-0.8-0.3-1.5-0.9-2c-0.6-0.5-1.3-0.8-2.3-0.8
		c-1.2,0-2.2,0.3-3,1c-0.2,0.1-0.2,0.3-0.1,0.4c0.1,0.1,0.1,0.1,0.2,0.1c0.1,0,0.2,0,0.3-0.1c0.2-0.1,0.5-0.3,0.9-0.5
		c0.4-0.2,1-0.3,1.7-0.3c0.7,0,1.3,0.2,1.7,0.6c0.5,0.4,0.7,0.9,0.7,1.5V24c0,0.1,0,0.2-0.2,0.2H38c-1,0-1.8,0.2-2.4,0.7
		c-0.6,0.5-0.9,1.1-0.9,1.9c0,0.7,0.3,1.4,0.8,1.8c0.5,0.5,1.3,0.7,2.4,0.7c0.6,0,1.2-0.2,1.7-0.5C40,28.5,40.4,28.1,40.7,27.7z
		 M37.7,28.6c-0.8,0-1.5-0.2-1.9-0.5c-0.4-0.4-0.6-0.8-0.6-1.4c0-0.6,0.2-1,0.7-1.4c0.4-0.4,1.1-0.5,2.1-0.5h2.7
		c0.1,0,0.2,0,0.2,0.2v1.5c-0.1,0.2-0.2,0.4-0.4,0.6C39.7,28.1,38.8,28.6,37.7,28.6z"/>
	<path class="st0" d="M45.5,28.5h-1.2c-0.2,0-0.3,0.1-0.3,0.3c0,0.2,0.1,0.3,0.3,0.3h3.1c0.2,0,0.3-0.1,0.3-0.3
		c0-0.2-0.1-0.3-0.3-0.3h-1c-0.1,0-0.2,0-0.2-0.2v-4.9c0.2-0.4,0.5-0.8,0.8-1.1c0.7-0.7,1.5-1.1,2.3-1.1c0.8,0,1.5,0.2,1.9,0.7
		c0.5,0.5,0.7,1.1,0.7,2.1v4.4c0,0.1,0,0.2-0.2,0.2h-1c-0.2,0-0.3,0.1-0.3,0.3c0,0.2,0.1,0.3,0.3,0.3H54c0.2,0,0.3-0.1,0.3-0.3
		c0-0.2-0.1-0.3-0.3-0.3h-1.2c-0.1,0-0.2,0-0.2-0.2v-4.4c0-1.1-0.3-1.9-0.9-2.5c-0.6-0.6-1.4-0.9-2.5-0.9c-1.1,0-2.1,0.5-3,1.5
		c-0.1,0.1-0.1,0.1-0.1,0.1c0,0,0-0.1,0-0.2V21c0-0.2-0.1-0.3-0.3-0.3h-1.7c-0.2,0-0.3,0.1-0.3,0.3c0,0.2,0.1,0.3,0.3,0.3h1.2
		c0.1,0,0.2,0,0.2,0.2v6.8C45.6,28.4,45.6,28.5,45.5,28.5z"/>
	<path class="st0" d="M61.2,24.2h-2.7c-1,0-1.8,0.2-2.4,0.7c-0.6,0.5-0.9,1.1-0.9,1.9c0,0.7,0.3,1.4,0.8,1.8
		c0.5,0.5,1.3,0.7,2.4,0.7c0.6,0,1.2-0.2,1.7-0.5c0.5-0.3,1-0.7,1.3-1c0.1-0.1,0.1-0.1,0.1-0.1c0,0,0,0.1,0,0.2v0.9
		c0,0.2,0.1,0.3,0.3,0.3h1.7c0.2,0,0.3-0.1,0.3-0.3c0-0.2-0.1-0.3-0.3-0.3h-1.2c-0.1,0-0.2,0-0.2-0.2v-5c0-0.8-0.3-1.5-0.9-2
		c-0.6-0.5-1.3-0.8-2.3-0.8c-1.2,0-2.2,0.3-3,1c-0.2,0.1-0.2,0.3-0.1,0.4c0.1,0.1,0.1,0.1,0.2,0.1c0.1,0,0.2,0,0.3-0.1
		c0.2-0.1,0.5-0.3,0.9-0.5c0.4-0.2,1-0.3,1.7-0.3c0.7,0,1.3,0.2,1.7,0.6c0.5,0.4,0.7,0.9,0.7,1.5V24C61.4,24.1,61.3,24.2,61.2,24.2z
		 M61.4,26.4c-0.1,0.2-0.2,0.4-0.4,0.6c-0.8,1.1-1.7,1.6-2.8,1.6c-0.8,0-1.5-0.2-1.9-0.5c-0.4-0.4-0.6-0.8-0.6-1.4
		c0-0.6,0.2-1,0.7-1.4c0.4-0.4,1.1-0.5,2.1-0.5h2.7c0.1,0,0.2,0,0.2,0.2V26.4z"/>
	<path class="st0" d="M8.3,45.1H7.2c-0.1,0-0.2,0-0.2-0.2v-5c0-0.8-0.3-1.5-0.9-2c-0.6-0.5-1.3-0.8-2.3-0.8c-1.2,0-2.2,0.3-3,1
		c-0.2,0.1-0.2,0.3-0.1,0.4c0.1,0.1,0.1,0.1,0.2,0.1c0.1,0,0.2,0,0.3-0.1c0.2-0.1,0.5-0.3,0.9-0.5c0.4-0.2,1-0.3,1.7-0.3
		c0.7,0,1.3,0.2,1.7,0.6c0.5,0.4,0.7,0.9,0.7,1.5v0.7c0,0.1,0,0.2-0.2,0.2H3.5c-1,0-1.8,0.2-2.4,0.7c-0.6,0.5-0.9,1.1-0.9,1.9
		c0,0.7,0.3,1.4,0.8,1.8C1.4,45.7,2.2,46,3.3,46c0.6,0,1.2-0.2,1.7-0.5c0.5-0.3,1-0.7,1.3-1c0.1-0.1,0.1-0.1,0.1-0.1
		c0,0,0,0.1,0,0.2v0.9c0,0.2,0.1,0.3,0.3,0.3h1.7c0.2,0,0.3-0.1,0.3-0.3C8.7,45.3,8.5,45.1,8.3,45.1z M6.4,43.1
		c-0.1,0.2-0.2,0.4-0.4,0.6c-0.8,1.1-1.7,1.6-2.8,1.6c-0.8,0-1.5-0.2-1.9-0.5c-0.4-0.4-0.6-0.8-0.6-1.4c0-0.6,0.2-1,0.7-1.4
		c0.4-0.4,1.1-0.5,2.1-0.5h2.7c0.1,0,0.2,0,0.2,0.2V43.1z"/>
	<path class="st0" d="M19.5,45.1h-1.2c-0.1,0-0.2,0-0.2-0.2v-4.4c0-1.1-0.3-1.9-0.9-2.5c-0.6-0.6-1.4-0.9-2.5-0.9
		c-1.1,0-2.1,0.5-3,1.5c-0.1,0.1-0.1,0.1-0.1,0.1c0,0,0-0.1,0-0.2v-0.9c0-0.2-0.1-0.3-0.3-0.3H9.8c-0.2,0-0.3,0.1-0.3,0.3
		c0,0.2,0.1,0.3,0.3,0.3h1.2c0.1,0,0.2,0,0.2,0.2V45c0,0.1,0,0.2-0.2,0.2H9.8c-0.2,0-0.3,0.1-0.3,0.3c0,0.2,0.1,0.3,0.3,0.3h3.1
		c0.2,0,0.3-0.1,0.3-0.3c0-0.2-0.1-0.3-0.3-0.3h-1c-0.1,0-0.2,0-0.2-0.2V40c0.2-0.4,0.5-0.8,0.8-1.1c0.7-0.7,1.5-1.1,2.3-1.1
		c0.8,0,1.5,0.2,1.9,0.7c0.5,0.5,0.7,1.1,0.7,2.1V45c0,0.1,0,0.2-0.2,0.2h-1c-0.2,0-0.3,0.1-0.3,0.3c0,0.2,0.1,0.3,0.3,0.3h3.1
		c0.2,0,0.3-0.1,0.3-0.3C19.8,45.3,19.7,45.1,19.5,45.1z"/>
	<path class="st0" d="M27.8,42.2c-0.4-0.3-0.9-0.5-1.5-0.7c-0.3-0.1-0.6-0.1-1-0.2c-0.4-0.1-0.8-0.1-1.1-0.2
		c-0.9-0.1-1.5-0.3-1.9-0.6c-0.4-0.3-0.6-0.6-0.6-1.1c0-0.5,0.2-0.9,0.7-1.2c0.5-0.3,1.2-0.5,2-0.5c0.5,0,0.9,0.1,1.3,0.3
		c0.7,0.3,1.3,0.8,1.8,1.4v0.8c0,0.2,0.1,0.3,0.3,0.3c0.2,0,0.3-0.1,0.3-0.3v-2.6c0-0.2-0.1-0.3-0.3-0.3c-0.2,0-0.3,0.1-0.3,0.3v0.7
		c0,0.1,0,0.1,0,0.2c0,0,0,0-0.1-0.1c-0.8-0.8-1.8-1.3-2.9-1.3c-1.1,0-1.9,0.2-2.5,0.7c-0.6,0.4-0.9,1-0.9,1.6
		c0,0.6,0.2,1.1,0.5,1.4c0.3,0.3,0.9,0.6,1.5,0.8c0.3,0.1,0.8,0.2,1.5,0.3c0.7,0.1,1.3,0.2,1.7,0.3c1,0.2,1.5,0.7,1.5,1.4
		c0,0.5-0.2,0.9-0.7,1.2c-0.5,0.3-1.2,0.5-2.2,0.5c-0.5,0-1-0.1-1.4-0.3c-0.8-0.3-1.4-0.8-1.8-1.4v-0.8c0-0.2-0.1-0.3-0.3-0.3
		c-0.2,0-0.3,0.1-0.3,0.3v2.6c0,0.2,0.1,0.3,0.3,0.3c0.2,0,0.3-0.1,0.3-0.3v-0.7c0-0.1,0-0.1,0-0.2c0,0,0.1,0,0.1,0.1
		c0.1,0.1,0.3,0.3,0.5,0.4c0.8,0.5,1.6,0.8,2.6,0.8c1.2,0,2.1-0.2,2.6-0.7c0.6-0.5,0.9-1,0.9-1.6C28.3,43,28.1,42.5,27.8,42.2z"/>
	<path class="st0" d="M34,37.2c-1.2,0-2.2,0.4-3,1.2c-0.8,0.8-1.1,1.9-1.1,3.2c0,1.3,0.4,2.4,1.1,3.2c0.8,0.8,1.8,1.2,3,1.2
		c1.2,0,2.2-0.4,3-1.2c0.8-0.8,1.1-1.9,1.1-3.2c0-1.3-0.4-2.4-1.1-3.2C36.2,37.6,35.2,37.2,34,37.2z M36.5,44.3
		c-0.6,0.7-1.5,1-2.5,1c-1.1,0-1.9-0.3-2.5-1c-0.6-0.7-0.9-1.6-0.9-2.7c0-1.1,0.3-2,1-2.7c0.6-0.7,1.5-1,2.5-1c1,0,1.9,0.3,2.5,1
		c0.6,0.7,1,1.6,1,2.7C37.5,42.7,37.2,43.6,36.5,44.3z"/>
	<path class="st0" d="M47.8,45.1h-1.2c-0.1,0-0.2,0-0.2-0.2v-5c0-0.8-0.3-1.5-0.9-2c-0.6-0.5-1.3-0.8-2.3-0.8c-1.2,0-2.2,0.3-3,1
		c-0.2,0.1-0.2,0.3-0.1,0.4c0.1,0.1,0.1,0.1,0.2,0.1c0.1,0,0.2,0,0.3-0.1c0.2-0.1,0.5-0.3,0.9-0.5c0.4-0.2,1-0.3,1.7-0.3
		c0.7,0,1.3,0.2,1.7,0.6c0.5,0.4,0.7,0.9,0.7,1.5v0.7c0,0.1,0,0.2-0.2,0.2h-2.7c-1,0-1.8,0.2-2.4,0.7c-0.6,0.5-0.9,1.1-0.9,1.9
		c0,0.7,0.3,1.4,0.8,1.8c0.5,0.5,1.3,0.7,2.4,0.7c0.6,0,1.2-0.2,1.7-0.5c0.5-0.3,1-0.7,1.3-1c0.1-0.1,0.1-0.1,0.1-0.1
		c0,0,0,0.1,0,0.2v0.9c0,0.2,0.1,0.3,0.3,0.3h1.7c0.2,0,0.3-0.1,0.3-0.3C48.1,45.3,48,45.1,47.8,45.1z M45.8,43.1
		c-0.1,0.2-0.2,0.4-0.4,0.6c-0.8,1.1-1.7,1.6-2.8,1.6c-0.8,0-1.5-0.2-1.9-0.5c-0.4-0.4-0.6-0.8-0.6-1.4c0-0.6,0.2-1,0.7-1.4
		c0.4-0.4,1.1-0.5,2.1-0.5h2.7c0.1,0,0.2,0,0.2,0.2V43.1z"/>
	<path class="st0" d="M50.3,34.9c-0.1,0.1-0.2,0.3-0.2,0.5c0,0.2,0.1,0.4,0.2,0.5c0.1,0.1,0.3,0.2,0.5,0.2c0.2,0,0.4-0.1,0.5-0.2
		c0.1-0.1,0.2-0.3,0.2-0.5c0-0.2-0.1-0.4-0.2-0.5c-0.1-0.1-0.3-0.2-0.5-0.2C50.6,34.7,50.4,34.8,50.3,34.9z"/>
	<path class="st0" d="M52.5,45.1h-1.2c-0.1,0-0.2,0-0.2-0.2v-7.3c0-0.2-0.1-0.3-0.3-0.3h-1.7c-0.2,0-0.3,0.1-0.3,0.3
		c0,0.2,0.1,0.3,0.3,0.3h1.2c0.1,0,0.2,0,0.2,0.2V45c0,0.1,0,0.2-0.2,0.2h-1.2c-0.2,0-0.3,0.1-0.3,0.3c0,0.2,0.1,0.3,0.3,0.3h3.3
		c0.2,0,0.3-0.1,0.3-0.3C52.8,45.3,52.7,45.1,52.5,45.1z"/>
	<path class="st0" d="M63.7,45.1h-1.2c-0.1,0-0.2,0-0.2-0.2v-4.4c0-1.1-0.3-1.9-0.9-2.5c-0.6-0.6-1.4-0.9-2.5-0.9
		c-1.1,0-2.1,0.5-3,1.5c-0.1,0.1-0.1,0.1-0.1,0.1c0,0,0-0.1,0-0.2v-0.9c0-0.2-0.1-0.3-0.3-0.3h-1.7c-0.2,0-0.3,0.1-0.3,0.3
		c0,0.2,0.1,0.3,0.3,0.3h1.2c0.1,0,0.2,0,0.2,0.2V45c0,0.1,0,0.2-0.2,0.2h-1.2c-0.2,0-0.3,0.1-0.3,0.3c0,0.2,0.1,0.3,0.3,0.3h3.1
		c0.2,0,0.3-0.1,0.3-0.3c0-0.2-0.1-0.3-0.3-0.3h-1c-0.1,0-0.2,0-0.2-0.2V40c0.2-0.4,0.5-0.8,0.8-1.1c0.7-0.7,1.5-1.1,2.3-1.1
		c0.8,0,1.5,0.2,1.9,0.7c0.5,0.5,0.7,1.1,0.7,2.1V45c0,0.1,0,0.2-0.2,0.2h-1c-0.2,0-0.3,0.1-0.3,0.3c0,0.2,0.1,0.3,0.3,0.3h3.1
		c0.2,0,0.3-0.1,0.3-0.3C64,45.3,63.9,45.1,63.7,45.1z"/>
</g>
</svg>
