<?xml version="1.0" encoding="utf-8"?>
<!-- Generator: Adobe Illustrator 22.0.0, SVG Export Plug-In . SVG Version: 6.00 Build 0)  -->
<svg version="1.1" id="Layer_1" xmlns="http://www.w3.org/2000/svg" xmlns:xlink="http://www.w3.org/1999/xlink" x="0px" y="0px"
	 viewBox="0 0 64 64" style="enable-background:new 0 0 64 64;" xml:space="preserve">
<path d="M0,57c0.3-0.7,0.5-1.3,0.9-1.7c1.9-2.4,3.9-4.8,5.9-7.1c0.8-0.9,1.1-1.9,1.1-3.1c0-9.1,0-18.2,0-27.4c0-1.3-0.3-2.2-1.2-3.2
	c-1.7-2-3.4-4-5-6.1c-0.3-0.4-0.5-1-0.8-1.7c0.7,0,1.1,0,1.5,0c5.3,0,10.6,0,15.9,0c0.9,0,1.4,0.2,1.8,1.1c4.3,9.5,8.6,19,13,28.5
	c0.2,0.4,0.4,0.8,0.7,1.4c0.2-0.5,0.4-0.9,0.6-1.3c3.8-9.6,7.7-19.1,11.5-28.7c0.3-0.8,0.7-1.1,1.5-1.1c5.1,0,10.3,0,15.4,0
	c0.3,0,0.6,0,1.3,0c-0.3,0.7-0.5,1.3-0.8,1.6c-1.3,1.4-2.7,2.7-4.1,3.9c-0.6,0.6-0.9,1.2-0.9,2.1c0,11.7,0,23.4,0.1,35.1
	c0,0.6,0.3,1.4,0.8,1.9c1.3,1.4,2.8,2.7,4.1,4.1c0.3,0.4,0.5,0.9,0.8,1.5c-8.5,0-16.7,0-25.3,0c0.3-0.6,0.4-1.2,0.8-1.6
	c1.4-1.4,2.9-2.7,4.2-4.2c0.4-0.4,0.8-1.1,0.8-1.7c0-9.4,0-18.8,0-28.6c-0.3,0.5-0.4,0.8-0.5,1C39.4,33.5,35,44.8,30.6,56
	c-0.2,0.6-0.4,1.2-1.3,1.2c-0.9,0-1.3-0.3-1.6-1.1c-5.1-11.2-10.2-22.3-15.3-33.4c-0.2-0.4-0.3-0.7-0.7-1.4c0,0.6-0.1,0.9-0.1,1.2
	c0,7.6,0,15.3,0,22.9c0,0.9,0.5,2,1,2.7c1.9,2.5,3.9,4.8,5.9,7.2c0.3,0.4,0.5,1,0.8,1.7C12.9,57,6.6,57,0,57z"/>
</svg>
