<?xml version="1.0" encoding="utf-8"?>
<!-- Generator: Adobe Illustrator 22.0.0, SVG Export Plug-In . SVG Version: 6.00 Build 0)  -->
<svg version="1.1" id="Layer_1" xmlns="http://www.w3.org/2000/svg" xmlns:xlink="http://www.w3.org/1999/xlink" x="0px" y="0px"
	 viewBox="0 0 64 64" style="enable-background:new 0 0 64 64;" xml:space="preserve">
<g>
	<path d="M61.6,52.1H37.9c-1.3,0-2.4-1.1-2.4-2.4c0-1.3,1.1-2.4,2.4-2.4h23.7c1.3,0,2.4,1.1,2.4,2.4C64,51.1,62.9,52.1,61.6,52.1z
		 M64,32c0-1.3-1.1-2.4-2.4-2.4H20.1c-1.3,0-2.4,1.1-2.4,2.4s1.1,2.4,2.4,2.4h41.5C62.9,34.4,64,33.3,64,32z M64,14.2
		c0-1.3-1.1-2.4-2.4-2.4H2.4c-1.3,0-2.4,1.1-2.4,2.4s1.1,2.4,2.4,2.4h59.3C62.9,16.6,64,15.5,64,14.2z"/>
</g>
</svg>
